<svg width="23" height="19" viewBox="0 0 23 19" fill="none" xmlns="http://www.w3.org/2000/svg">
<path fill-rule="evenodd" clip-rule="evenodd" d="M15.1198 18.0984L22.6057 10.4699C23.1314 9.93435 23.1314 9.06606 22.6057 8.53013L15.1198 0.901638C14.5945 0.366123 13.7424 0.366123 13.2166 0.901638L11.8244 2.3204C11.299 2.85592 11.299 3.72421 11.8244 4.25972L14.5378 7.02496C14.5741 7.06193 14.5484 7.12549 14.497 7.12549L0.99257 7.1255C0.10987 7.1255 -0.331887 8.21273 0.292203 8.84878L2.0058 10.5949C2.80977 11.4142 3.9001 11.8749 5.03692 11.8749L14.497 11.8749C14.5484 11.8749 14.5741 11.9381 14.5378 11.975L11.8244 14.7403C11.299 15.2758 11.299 16.1441 11.8244 16.6796L13.2166 18.0984C13.7424 18.6339 14.5945 18.6339 15.1198 18.0984Z" fill="white"/>
</svg>
