<svg width="59" height="41" viewBox="0 0 59 41" fill="none" xmlns="http://www.w3.org/2000/svg">
<g filter="url(#filter0_d_1_18)">
<path d="M4.44 12.188V1.09999H10.76V2.04399H5.528V5.94799H10.168V6.89199H5.528V12.188H4.44ZM20.1445 4.42799C20.1445 5.25999 19.9258 5.91599 19.4885 6.39599C19.0512 6.87599 18.4752 7.22265 17.7605 7.43599C17.9312 7.64932 18.1498 7.93732 18.4165 8.29999C18.6938 8.66265 18.9765 9.06265 19.2645 9.49999C19.5525 9.92665 19.8352 10.3747 20.1125 10.844C20.3898 11.3133 20.6245 11.7613 20.8165 12.188H19.6485C19.4245 11.7613 19.1792 11.3347 18.9125 10.908C18.6565 10.4813 18.3898 10.0707 18.1125 9.67599C17.8458 9.27065 17.5845 8.89732 17.3285 8.55599C17.0725 8.21465 16.8485 7.91599 16.6565 7.65999C16.3152 7.69199 15.9738 7.70799 15.6325 7.70799H13.8405V12.188H12.7525V1.30799C13.1365 1.20132 13.5845 1.12665 14.0965 1.08399C14.6192 1.03065 15.0992 1.00399 15.5365 1.00399C17.0618 1.00399 18.2085 1.29199 18.9765 1.86799C19.7552 2.44399 20.1445 3.29732 20.1445 4.42799ZM15.6645 1.94799C15.2592 1.94799 14.9018 1.96399 14.5925 1.99599C14.2938 2.01732 14.0432 2.03865 13.8405 2.05999V6.77999H15.3445C15.8458 6.77999 16.3205 6.75865 16.7685 6.71599C17.2165 6.66265 17.6058 6.55599 17.9365 6.39599C18.2672 6.22532 18.5285 5.98532 18.7205 5.67599C18.9125 5.36665 19.0085 4.94532 19.0085 4.41199C19.0085 3.92132 18.9125 3.51599 18.7205 3.19599C18.5285 2.87599 18.2778 2.62532 17.9685 2.44399C17.6592 2.25199 17.3018 2.12399 16.8965 2.05999C16.5018 1.98532 16.0912 1.94799 15.6645 1.94799ZM32.5951 6.63599C32.5951 7.58532 32.4565 8.42265 32.1791 9.14799C31.9018 9.87332 31.5231 10.4813 31.0431 10.972C30.5738 11.452 30.0245 11.8147 29.3951 12.06C28.7658 12.3053 28.0991 12.428 27.3951 12.428C26.6911 12.428 26.0245 12.3053 25.3951 12.06C24.7658 11.8147 24.2111 11.452 23.7311 10.972C23.2618 10.4813 22.8885 9.87332 22.6111 9.14799C22.3338 8.42265 22.1951 7.58532 22.1951 6.63599C22.1951 5.68665 22.3338 4.85465 22.6111 4.13999C22.8885 3.41465 23.2618 2.81199 23.7311 2.33199C24.2111 1.84132 24.7658 1.47332 25.3951 1.22799C26.0245 0.982655 26.6911 0.859988 27.3951 0.859988C28.0991 0.859988 28.7658 0.982655 29.3951 1.22799C30.0245 1.47332 30.5738 1.84132 31.0431 2.33199C31.5231 2.81199 31.9018 3.41465 32.1791 4.13999C32.4565 4.85465 32.5951 5.68665 32.5951 6.63599ZM31.4431 6.63599C31.4431 5.88932 31.3471 5.22265 31.1551 4.63599C30.9631 4.03865 30.6911 3.53199 30.3391 3.11599C29.9871 2.69999 29.5605 2.38532 29.0591 2.17199C28.5685 1.94799 28.0138 1.83599 27.3951 1.83599C26.7765 1.83599 26.2165 1.94799 25.7151 2.17199C25.2245 2.38532 24.8031 2.69999 24.4511 3.11599C24.0991 3.53199 23.8271 4.03865 23.6351 4.63599C23.4431 5.22265 23.3471 5.88932 23.3471 6.63599C23.3471 7.38265 23.4431 8.05465 23.6351 8.65199C23.8271 9.23865 24.0991 9.73999 24.4511 10.156C24.8031 10.572 25.2245 10.892 25.7151 11.116C26.2165 11.34 26.7765 11.452 27.3951 11.452C28.0138 11.452 28.5685 11.34 29.0591 11.116C29.5605 10.892 29.9871 10.572 30.3391 10.156C30.6911 9.73999 30.9631 9.23865 31.1551 8.65199C31.3471 8.05465 31.4431 7.38265 31.4431 6.63599ZM41.8238 1.09999V2.04399H38.2718V12.188H37.1838V2.04399H33.6318V1.09999H41.8238ZM50.1773 12.188C49.9746 11.644 49.7826 11.1213 49.6013 10.62C49.4199 10.1187 49.2439 9.62799 49.0733 9.14799H43.6813C43.4999 9.62799 43.3186 10.1187 43.1373 10.62C42.9559 11.1213 42.7693 11.644 42.5773 12.188H41.4413C41.8679 11.036 42.2679 9.96399 42.6413 8.97199C43.0146 7.96932 43.3773 7.02532 43.7293 6.13999C44.0919 5.24399 44.4493 4.38532 44.8013 3.56399C45.1533 2.74265 45.5266 1.92132 45.9213 1.09999H46.8813C47.2759 1.92132 47.6493 2.74265 48.0013 3.56399C48.3533 4.38532 48.7053 5.24399 49.0573 6.13999C49.4199 7.02532 49.7879 7.96932 50.1613 8.97199C50.5346 9.96399 50.9399 11.036 51.3773 12.188H50.1773ZM46.3693 2.34799C45.9639 3.26532 45.5693 4.19865 45.1853 5.14799C44.8119 6.09732 44.4226 7.12132 44.0173 8.21999H48.7373C48.3319 7.12132 47.9373 6.09732 47.5533 5.14799C47.1693 4.19865 46.7746 3.26532 46.3693 2.34799ZM15.504 29.572V32.188H4.992V15.556H8.016V29.572H15.504ZM16.7379 25.972C16.7379 24.868 16.8979 23.9 17.2179 23.068C17.5539 22.236 17.9939 21.548 18.5379 21.004C19.0819 20.444 19.7059 20.028 20.4099 19.756C21.1139 19.468 21.8339 19.324 22.5699 19.324C24.2979 19.324 25.6419 19.86 26.6019 20.932C27.5779 22.004 28.0659 23.604 28.0659 25.732C28.0659 25.892 28.0579 26.076 28.0419 26.284C28.0419 26.476 28.0339 26.652 28.0179 26.812H19.7379C19.8179 27.82 20.1699 28.604 20.7939 29.164C21.4339 29.708 22.3539 29.98 23.5539 29.98C24.2579 29.98 24.8979 29.916 25.4739 29.788C26.0659 29.66 26.5299 29.524 26.8659 29.38L27.2499 31.756C27.0899 31.836 26.8659 31.924 26.5779 32.02C26.3059 32.1 25.9859 32.172 25.6179 32.236C25.2659 32.316 24.8819 32.38 24.4659 32.428C24.0499 32.476 23.6259 32.5 23.1939 32.5C22.0899 32.5 21.1299 32.34 20.3139 32.02C19.4979 31.684 18.8259 31.228 18.2979 30.652C17.7699 30.06 17.3779 29.372 17.1219 28.588C16.8659 27.788 16.7379 26.916 16.7379 25.972ZM25.1619 24.676C25.1619 24.276 25.1059 23.9 24.9939 23.548C24.8819 23.18 24.7139 22.868 24.4899 22.612C24.2819 22.34 24.0179 22.132 23.6979 21.988C23.3939 21.828 23.0259 21.748 22.5939 21.748C22.1459 21.748 21.7539 21.836 21.4179 22.012C21.0819 22.172 20.7939 22.388 20.5539 22.66C20.3299 22.932 20.1539 23.244 20.0259 23.596C19.8979 23.948 19.8099 24.308 19.7619 24.676H25.1619ZM34.3609 32.188C33.5609 30.54 32.7369 28.652 31.8889 26.524C31.0569 24.38 30.2969 22.084 29.6089 19.636H32.7049C32.8809 20.34 33.0809 21.1 33.3049 21.916C33.5449 22.716 33.7929 23.524 34.0489 24.34C34.3209 25.14 34.5929 25.924 34.8649 26.692C35.1529 27.444 35.4169 28.124 35.6569 28.732C35.8969 28.124 36.1529 27.444 36.4249 26.692C36.6969 25.924 36.9609 25.14 37.2169 24.34C37.4889 23.524 37.7449 22.716 37.9849 21.916C38.2249 21.1 38.4329 20.34 38.6089 19.636H41.6089C40.9209 22.084 40.1529 24.38 39.3049 26.524C38.4729 28.652 37.6569 30.54 36.8569 32.188H34.3609ZM42.8004 25.972C42.8004 24.868 42.9604 23.9 43.2804 23.068C43.6164 22.236 44.0564 21.548 44.6004 21.004C45.1444 20.444 45.7684 20.028 46.4724 19.756C47.1764 19.468 47.8964 19.324 48.6324 19.324C50.3604 19.324 51.7044 19.86 52.6644 20.932C53.6404 22.004 54.1284 23.604 54.1284 25.732C54.1284 25.892 54.1204 26.076 54.1044 26.284C54.1044 26.476 54.0964 26.652 54.0804 26.812H45.8004C45.8804 27.82 46.2324 28.604 46.8564 29.164C47.4964 29.708 48.4164 29.98 49.6164 29.98C50.3204 29.98 50.9604 29.916 51.5364 29.788C52.1284 29.66 52.5924 29.524 52.9284 29.38L53.3124 31.756C53.1524 31.836 52.9284 31.924 52.6404 32.02C52.3684 32.1 52.0484 32.172 51.6804 32.236C51.3284 32.316 50.9444 32.38 50.5284 32.428C50.1124 32.476 49.6884 32.5 49.2564 32.5C48.1524 32.5 47.1924 32.34 46.3764 32.02C45.5604 31.684 44.8884 31.228 44.3604 30.652C43.8324 30.06 43.4404 29.372 43.1844 28.588C42.9284 27.788 42.8004 26.916 42.8004 25.972ZM51.2244 24.676C51.2244 24.276 51.1684 23.9 51.0564 23.548C50.9444 23.18 50.7764 22.868 50.5524 22.612C50.3444 22.34 50.0804 22.132 49.7604 21.988C49.4564 21.828 49.0884 21.748 48.6564 21.748C48.2084 21.748 47.8164 21.836 47.4804 22.012C47.1444 22.172 46.8564 22.388 46.6164 22.66C46.3924 22.932 46.2164 23.244 46.0884 23.596C45.9604 23.948 45.8724 24.308 45.8244 24.676H51.2244Z" fill="#BDBDBD"/>
<path d="M4.44 12.188H3.94V12.688H4.44V12.188ZM4.44 1.09999V0.599988H3.94V1.09999H4.44ZM10.76 1.09999H11.26V0.599988H10.76V1.09999ZM10.76 2.04399V2.54399H11.26V2.04399H10.76ZM5.528 2.04399V1.54399H5.028V2.04399H5.528ZM5.528 5.94799H5.028V6.44799H5.528V5.94799ZM10.168 5.94799H10.668V5.44799H10.168V5.94799ZM10.168 6.89199V7.39199H10.668V6.89199H10.168ZM5.528 6.89199V6.39199H5.028V6.89199H5.528ZM5.528 12.188V12.688H6.028V12.188H5.528ZM4.94 12.188V1.09999H3.94V12.188H4.94ZM4.44 1.59999H10.76V0.599988H4.44V1.59999ZM10.26 1.09999V2.04399H11.26V1.09999H10.26ZM10.76 1.54399H5.528V2.54399H10.76V1.54399ZM5.028 2.04399V5.94799H6.028V2.04399H5.028ZM5.528 6.44799H10.168V5.44799H5.528V6.44799ZM9.668 5.94799V6.89199H10.668V5.94799H9.668ZM10.168 6.39199H5.528V7.39199H10.168V6.39199ZM5.028 6.89199V12.188H6.028V6.89199H5.028ZM5.528 11.688H4.44V12.688H5.528V11.688ZM19.4885 6.39599L19.1189 6.05924L19.4885 6.39599ZM17.7605 7.43599L17.6175 6.95688L16.9067 7.16907L17.3701 7.74834L17.7605 7.43599ZM18.4165 8.29999L18.0136 8.59624L18.0193 8.60371L18.4165 8.29999ZM19.2645 9.49999L18.8469 9.775L18.8501 9.77973L19.2645 9.49999ZM20.1125 10.844L19.682 11.0984V11.0984L20.1125 10.844ZM20.8165 12.188V12.688H21.5898L21.2725 11.9828L20.8165 12.188ZM19.6485 12.188L19.2058 12.4204L19.3463 12.688H19.6485V12.188ZM18.9125 10.908L18.4837 11.1653L18.4885 11.173L18.9125 10.908ZM18.1125 9.67599L17.6948 9.9508L17.699 9.95719L17.7034 9.96346L18.1125 9.67599ZM17.3285 8.55599L17.7285 8.25599L17.3285 8.55599ZM16.6565 7.65999L17.0565 7.35999L16.8885 7.13604L16.6098 7.16217L16.6565 7.65999ZM13.8405 7.70799V7.20799H13.3405V7.70799H13.8405ZM13.8405 12.188V12.688H14.3405V12.188H13.8405ZM12.7525 12.188H12.2525V12.688H12.7525V12.188ZM12.7525 1.30799L12.6187 0.82623L12.2525 0.927946V1.30799H12.7525ZM14.0965 1.08399L14.138 1.58235L14.1473 1.58141L14.0965 1.08399ZM18.9765 1.86799L18.6765 2.268L18.6792 2.26996L18.9765 1.86799ZM14.5925 1.99599L14.6281 2.49472L14.636 2.49415L14.644 2.49333L14.5925 1.99599ZM13.8405 2.05999L13.7882 1.56274L13.3405 1.60986V2.05999H13.8405ZM13.8405 6.77999H13.3405V7.27999H13.8405V6.77999ZM16.7685 6.71599L16.8159 7.21387L16.8276 7.21248L16.7685 6.71599ZM17.9365 6.39599L18.1544 6.84622L18.1658 6.8403L17.9365 6.39599ZM18.7205 5.67599L19.1453 5.93967L18.7205 5.67599ZM18.7205 3.19599L19.1492 2.93874L18.7205 3.19599ZM17.9685 2.44399L17.7047 2.86894L17.7156 2.87534L17.9685 2.44399ZM16.8965 2.05999L16.8036 2.55127L16.811 2.55268L16.8185 2.55387L16.8965 2.05999ZM19.6445 4.42799C19.6445 5.17161 19.4508 5.69498 19.1189 6.05924L19.8581 6.73273C20.4009 6.137 20.6445 5.34837 20.6445 4.42799H19.6445ZM19.1189 6.05924C18.7514 6.4626 18.2583 6.7656 17.6175 6.95688L17.9035 7.9151C18.6921 7.67971 19.3509 7.28937 19.8581 6.73273L19.1189 6.05924ZM17.3701 7.74834C17.5347 7.95409 17.7488 8.23598 18.0137 8.59618L18.8193 8.00379C18.5508 7.63866 18.3277 7.34455 18.1509 7.12364L17.3701 7.74834ZM18.0193 8.60371C18.2886 8.95581 18.5645 9.34607 18.8469 9.77498L19.6821 9.22499C19.3885 8.77924 19.0991 8.3695 18.8137 7.99626L18.0193 8.60371ZM18.8501 9.77973C19.1322 10.1976 19.4095 10.6371 19.682 11.0984L20.543 10.5896C20.2608 10.1122 19.9728 9.65568 19.6789 9.22025L18.8501 9.77973ZM19.682 11.0984C19.9515 11.5543 20.1772 11.9858 20.3605 12.3932L21.2725 11.9828C21.0718 11.5368 20.8282 11.0723 20.543 10.5896L19.682 11.0984ZM20.8165 11.688H19.6485V12.688H20.8165V11.688ZM20.0912 11.9556C19.8611 11.5173 19.6095 11.0798 19.3365 10.643L18.4885 11.173C18.7488 11.5895 18.9879 12.0053 19.2058 12.4204L20.0912 11.9556ZM19.3412 10.6507C19.0793 10.2141 18.8061 9.79332 18.5216 9.38852L17.7034 9.96346C17.9736 10.348 18.2337 10.7486 18.4838 11.1652L19.3412 10.6507ZM18.5302 9.40118C18.2586 8.98841 17.9914 8.60656 17.7285 8.25599L16.9285 8.85599C17.1776 9.18809 17.433 9.5529 17.6948 9.9508L18.5302 9.40118ZM17.7285 8.25599C17.4725 7.91465 17.2485 7.61599 17.0565 7.35999L16.2565 7.95999C16.4485 8.21599 16.6725 8.51466 16.9285 8.85599L17.7285 8.25599ZM16.6098 7.16217C16.2839 7.19272 15.9582 7.20799 15.6325 7.20799V8.20799C15.9895 8.20799 16.3464 8.19125 16.7032 8.15781L16.6098 7.16217ZM15.6325 7.20799H13.8405V8.20799H15.6325V7.20799ZM13.3405 7.70799V12.188H14.3405V7.70799H13.3405ZM13.8405 11.688H12.7525V12.688H13.8405V11.688ZM13.2525 12.188V1.30799H12.2525V12.188H13.2525ZM12.8863 1.78975C13.233 1.69346 13.6488 1.62303 14.138 1.58226L14.055 0.585715C13.5202 0.63028 13.04 0.709181 12.6187 0.82623L12.8863 1.78975ZM14.1473 1.58141C14.6563 1.52946 15.1191 1.50399 15.5365 1.50399V0.503987C15.0793 0.503987 14.582 0.531846 14.0457 0.586571L14.1473 1.58141ZM15.5365 1.50399C17.0128 1.50399 18.0327 1.78516 18.6765 2.26799L19.2765 1.46799C18.3843 0.798819 17.1109 0.503987 15.5365 0.503987V1.50399ZM18.6792 2.26996C19.3079 2.73507 19.6445 3.4257 19.6445 4.42799H20.6445C20.6445 3.16894 20.2024 2.1529 19.2739 1.46601L18.6792 2.26996ZM15.6645 1.44799C15.2468 1.44799 14.8717 1.46444 14.541 1.49864L14.644 2.49333C14.932 2.46354 15.2715 2.44799 15.6645 2.44799V1.44799ZM14.5569 1.49726C14.255 1.51882 13.9983 1.54061 13.7882 1.56274L13.8928 2.55724C14.088 2.53669 14.3327 2.51582 14.6281 2.49472L14.5569 1.49726ZM13.3405 2.05999V6.77999H14.3405V2.05999H13.3405ZM13.8405 7.27999H15.3445V6.27999H13.8405V7.27999ZM15.3445 7.27999C15.8599 7.27999 16.3505 7.25806 16.8159 7.21374L16.7211 6.21824C16.2905 6.25925 15.8318 6.27999 15.3445 6.27999V7.27999ZM16.8276 7.21248C17.3186 7.15403 17.7638 7.03503 18.1543 6.84607L17.7187 5.94591C17.4479 6.07694 17.1144 6.17128 16.7094 6.21949L16.8276 7.21248ZM18.1658 6.8403C18.5749 6.62915 18.9046 6.32753 19.1453 5.93967L18.2957 5.41231C18.1524 5.64311 17.9594 5.82149 17.7072 5.95168L18.1658 6.8403ZM19.1453 5.93967C19.4042 5.52252 19.5085 4.99777 19.5085 4.41199H18.5085C18.5085 4.89287 18.4208 5.21079 18.2957 5.41231L19.1453 5.93967ZM19.5085 4.41199C19.5085 3.85851 19.4004 3.35726 19.1492 2.93874L18.2918 3.45324C18.4246 3.67472 18.5085 3.98413 18.5085 4.41199H19.5085ZM19.1492 2.93874C18.916 2.54992 18.606 2.23811 18.2214 2.01264L17.7156 2.87534C17.9497 3.01254 18.141 3.20205 18.2918 3.45324L19.1492 2.93874ZM18.2322 2.01917C17.8594 1.78779 17.4373 1.63919 16.9745 1.56611L16.8185 2.55387C17.1663 2.60879 17.4589 2.71619 17.7048 2.86881L18.2322 2.01917ZM16.9894 1.5687C16.5623 1.48789 16.1204 1.44799 15.6645 1.44799V2.44799C16.0619 2.44799 16.4414 2.48275 16.8036 2.55127L16.9894 1.5687ZM32.1791 9.14799L32.6462 9.32656V9.32656L32.1791 9.14799ZM31.0431 10.972L30.6857 10.6223L30.6856 10.6224L31.0431 10.972ZM25.3951 12.06L25.5767 11.5941L25.3951 12.06ZM23.7311 10.972L23.3697 11.3177L23.3776 11.3255L23.7311 10.972ZM22.6111 9.14799L23.0782 8.96942L22.6111 9.14799ZM22.6111 4.13999L23.0773 4.32088L23.0782 4.31856L22.6111 4.13999ZM23.7311 2.33199L23.3737 1.98234L23.3736 1.98243L23.7311 2.33199ZM25.3951 1.22799L25.2135 0.762133L25.3951 1.22799ZM29.3951 1.22799L29.5767 0.762133L29.3951 1.22799ZM31.0431 2.33199L30.6817 2.67768L30.6896 2.68554L31.0431 2.33199ZM32.1791 4.13999L31.7121 4.31856L31.713 4.32088L32.1791 4.13999ZM31.1551 4.63599L30.6791 4.78899L30.6799 4.79151L31.1551 4.63599ZM30.3391 3.11599L30.7208 2.79302V2.79302L30.3391 3.11599ZM29.0591 2.17199L28.8514 2.62698L28.8633 2.63206L29.0591 2.17199ZM25.7151 2.17199L25.9145 2.63055L25.9191 2.62849L25.7151 2.17199ZM24.4511 3.11599L24.0694 2.79302V2.79302L24.4511 3.11599ZM23.6351 4.63599L24.1103 4.79151L24.1111 4.78899L23.6351 4.63599ZM23.6351 8.65199L23.1591 8.80499L23.1599 8.80751L23.6351 8.65199ZM24.4511 10.156L24.0694 10.479L24.4511 10.156ZM25.7151 11.116L25.5075 11.5708L25.5112 11.5725L25.7151 11.116ZM29.0591 11.116L28.8551 10.6595L28.8515 10.6611L29.0591 11.116ZM30.3391 10.156L30.7208 10.479L30.3391 10.156ZM31.1551 8.65199L31.6303 8.80751L31.6311 8.80499L31.1551 8.65199ZM32.0951 6.63599C32.0951 7.53744 31.9634 8.31222 31.7121 8.96942L32.6462 9.32656C32.9495 8.53309 33.0951 7.6332 33.0951 6.63599H32.0951ZM31.7121 8.96942C31.456 9.63921 31.1119 10.1866 30.6857 10.6223L31.4005 11.3216C31.9343 10.776 32.3476 10.1074 32.6462 9.32656L31.7121 8.96942ZM30.6856 10.6224C30.2663 11.0513 29.777 11.3745 29.2135 11.5941L29.5767 12.5258C30.2719 12.2549 30.8813 11.8527 31.4006 11.3215L30.6856 10.6224ZM29.2135 11.5941C28.6445 11.816 28.0397 11.928 27.3951 11.928V12.928C28.1586 12.928 28.8871 12.7947 29.5767 12.5258L29.2135 11.5941ZM27.3951 11.928C26.7506 11.928 26.1457 11.816 25.5767 11.5941L25.2135 12.5258C25.9032 12.7947 26.6317 12.928 27.3951 12.928V11.928ZM25.5767 11.5941C25.0122 11.3741 24.516 11.0498 24.0847 10.6184L23.3776 11.3255C23.9062 11.8542 24.5194 12.2552 25.2135 12.5258L25.5767 11.5941ZM24.0924 10.6264C23.6753 10.1902 23.3351 9.64147 23.0782 8.96942L22.1441 9.32656C22.4418 10.1052 22.8483 10.7724 23.3698 11.3176L24.0924 10.6264ZM23.0782 8.96942C22.8269 8.31222 22.6951 7.53744 22.6951 6.63599H21.6951C21.6951 7.6332 21.8407 8.53309 22.1441 9.32656L23.0782 8.96942ZM22.6951 6.63599C22.6951 5.73429 22.8269 4.96593 23.0773 4.32088L22.145 3.9591C21.8406 4.74338 21.6951 5.63902 21.6951 6.63599H22.6951ZM23.0782 4.31856C23.3349 3.64718 23.674 3.10557 24.0886 2.68155L23.3736 1.98243C22.8496 2.5184 22.4421 3.18213 22.1441 3.96142L23.0782 4.31856ZM24.0885 2.68163C24.5197 2.24091 25.0147 1.91294 25.5767 1.69384L25.2135 0.762133C24.5169 1.0337 23.9026 1.44173 23.3737 1.98234L24.0885 2.68163ZM25.5767 1.69384C26.1457 1.47202 26.7506 1.35999 27.3951 1.35999V0.359988C26.6317 0.359988 25.9032 0.493286 25.2135 0.762133L25.5767 1.69384ZM27.3951 1.35999C28.0397 1.35999 28.6445 1.47202 29.2135 1.69384L29.5767 0.762133C28.8871 0.493286 28.1586 0.359988 27.3951 0.359988V1.35999ZM29.2135 1.69384C29.7745 1.91254 30.2626 2.23936 30.6818 2.6776L31.4044 1.98638C30.885 1.44328 30.2744 1.0341 29.5767 0.762133L29.2135 1.69384ZM30.6896 2.68554C31.1132 3.10917 31.4563 3.64946 31.7121 4.31856L32.6462 3.96142C32.3473 3.17985 31.9331 2.51481 31.3967 1.97843L30.6896 2.68554ZM31.713 4.32088C31.9633 4.96593 32.0951 5.73429 32.0951 6.63599H33.0951C33.0951 5.63902 32.9496 4.74338 32.6453 3.9591L31.713 4.32088ZM31.9431 6.63599C31.9431 5.84719 31.8418 5.12658 31.6303 4.48047L30.6799 4.79151C30.8525 5.31873 30.9431 5.93145 30.9431 6.63599H31.9431ZM31.6311 4.48298C31.4221 3.83271 31.121 3.26594 30.7208 2.79302L29.9574 3.43896C30.2613 3.79804 30.5041 4.2446 30.6791 4.78899L31.6311 4.48298ZM30.7208 2.79302C30.3184 2.31744 29.8281 1.95581 29.2549 1.71191L28.8633 2.63206C29.2928 2.81483 29.6558 3.08253 29.9574 3.43896L30.7208 2.79302ZM29.2668 1.71714C28.702 1.45931 28.0749 1.33599 27.3951 1.33599V2.33599C27.9526 2.33599 28.4349 2.43666 28.8515 2.62683L29.2668 1.71714ZM27.3951 1.33599C26.7151 1.33599 26.0843 1.45938 25.5112 1.71548L25.9191 2.62849C26.3486 2.43659 26.8378 2.33599 27.3951 2.33599V1.33599ZM25.5158 1.71345C24.9534 1.95797 24.4701 2.31956 24.0694 2.79302L24.8328 3.43896C25.1362 3.08042 25.4955 2.81268 25.9145 2.63052L25.5158 1.71345ZM24.0694 2.79302C23.6693 3.26594 23.3681 3.83271 23.1591 4.48298L24.1111 4.78899C24.2861 4.2446 24.529 3.79804 24.8328 3.43896L24.0694 2.79302ZM23.1599 4.48047C22.9485 5.12658 22.8471 5.84719 22.8471 6.63599H23.8471C23.8471 5.93145 23.9378 5.31873 24.1103 4.79151L23.1599 4.48047ZM22.8471 6.63599C22.8471 7.42502 22.9485 8.14985 23.1591 8.80499L24.1111 8.49898C23.9377 7.95946 23.8471 7.34029 23.8471 6.63599H22.8471ZM23.1599 8.80751C23.3693 9.44741 23.6706 10.0076 24.0694 10.479L24.8328 9.83302C24.5277 9.47239 24.2849 9.0299 24.1103 8.49647L23.1599 8.80751ZM24.0694 10.479C24.4685 10.9506 24.9491 11.3159 25.5075 11.5708L25.9228 10.6611C25.4998 10.4681 25.1377 10.1934 24.8328 9.83302L24.0694 10.479ZM25.5112 11.5725C26.0843 11.8286 26.7151 11.952 27.3951 11.952V10.952C26.8378 10.952 26.3486 10.8514 25.9191 10.6595L25.5112 11.5725ZM27.3951 11.952C28.0749 11.952 28.702 11.8287 29.2668 11.5708L28.8515 10.6611C28.4349 10.8513 27.9526 10.952 27.3951 10.952V11.952ZM29.2631 11.5725C29.8324 11.3181 30.32 10.9527 30.7208 10.479L29.9574 9.83302C29.6543 10.1913 29.2885 10.4659 28.8552 10.6595L29.2631 11.5725ZM30.7208 10.479C31.1197 10.0076 31.4209 9.44741 31.6303 8.80751L30.6799 8.49647C30.5053 9.0299 30.2626 9.47239 29.9574 9.83302L30.7208 10.479ZM31.6311 8.80499C31.8417 8.14985 31.9431 7.42502 31.9431 6.63599H30.9431C30.9431 7.34029 30.8525 7.95946 30.6791 8.49898L31.6311 8.80499ZM41.8237 1.09999H42.3237V0.599988H41.8237V1.09999ZM41.8237 2.04399V2.54399H42.3237V2.04399H41.8237ZM38.2718 2.04399V1.54399H37.7718V2.04399H38.2718ZM38.2718 12.188V12.688H38.7718V12.188H38.2718ZM37.1838 12.188H36.6838V12.688H37.1838V12.188ZM37.1838 2.04399H37.6838V1.54399H37.1838V2.04399ZM33.6318 2.04399H33.1318V2.54399H33.6318V2.04399ZM33.6318 1.09999V0.599988H33.1318V1.09999H33.6318ZM41.3237 1.09999V2.04399H42.3237V1.09999H41.3237ZM41.8237 1.54399H38.2718V2.54399H41.8237V1.54399ZM37.7718 2.04399V12.188H38.7718V2.04399H37.7718ZM38.2718 11.688H37.1838V12.688H38.2718V11.688ZM37.6838 12.188V2.04399H36.6838V12.188H37.6838ZM37.1838 1.54399H33.6318V2.54399H37.1838V1.54399ZM34.1318 2.04399V1.09999H33.1318V2.04399H34.1318ZM33.6318 1.59999H41.8237V0.599988H33.6318V1.59999ZM50.1772 12.188L49.7087 12.3625L49.83 12.688H50.1772V12.188ZM49.6012 10.62L50.0714 10.4499V10.4499L49.6012 10.62ZM49.0732 9.14799L49.5444 8.98048L49.4261 8.64799H49.0732V9.14799ZM43.6813 9.14799V8.64799H43.3357L43.2135 8.97129L43.6813 9.14799ZM43.1372 10.62L43.6074 10.7901L43.1372 10.62ZM42.5773 12.188V12.688H42.931L43.0487 12.3544L42.5773 12.188ZM41.4412 12.188L40.9724 12.0143L40.7229 12.688H41.4412V12.188ZM42.6413 8.97199L43.1092 9.1481L43.1098 9.14646L42.6413 8.97199ZM43.7293 6.13999L43.2658 5.95239L43.2646 5.95526L43.7293 6.13999ZM44.8013 3.56399L44.3417 3.36703L44.8013 3.56399ZM45.9212 1.09999V0.599988H45.6068L45.4706 0.883432L45.9212 1.09999ZM46.8812 1.09999L47.3319 0.883432L47.1957 0.599988H46.8812V1.09999ZM49.0573 6.13999L48.5918 6.32283L48.5946 6.32952L49.0573 6.13999ZM50.1613 8.97199L49.6927 9.14646L49.6933 9.1481L50.1613 8.97199ZM51.3773 12.188V12.688H52.1019L51.8447 12.0105L51.3773 12.188ZM46.3693 2.34799L46.8266 2.14591L46.3693 1.11087L45.9119 2.14591L46.3693 2.34799ZM45.1852 5.14799L44.7217 4.96049L44.7199 4.965L45.1852 5.14799ZM44.0173 8.21999L43.5482 8.04692L43.2998 8.71999H44.0173V8.21999ZM48.7373 8.21999V8.71999H49.4547L49.2063 8.04692L48.7373 8.21999ZM50.6458 12.0134C50.4436 11.4708 50.2522 10.9496 50.0714 10.4499L49.1311 10.7901C49.313 11.293 49.5055 11.8172 49.7087 12.3625L50.6458 12.0134ZM50.0714 10.4499C49.8904 9.9494 49.7147 9.45959 49.5444 8.98048L48.6021 9.31549C48.7731 9.79639 48.9494 10.2879 49.1311 10.7901L50.0714 10.4499ZM49.0732 8.64799H43.6813V9.64799H49.0732V8.64799ZM43.2135 8.97129C43.0313 9.45358 42.8492 9.94646 42.6671 10.4499L43.6074 10.7901C43.788 10.2909 43.9685 9.8024 44.149 9.32469L43.2135 8.97129ZM42.6671 10.4499C42.4853 10.9526 42.2982 11.4765 42.1058 12.0216L43.0487 12.3544C43.2403 11.8115 43.4266 11.2901 43.6074 10.7901L42.6671 10.4499ZM42.5773 11.688H41.4412V12.688H42.5773V11.688ZM41.9101 12.3616C42.3365 11.2103 42.7362 10.1392 43.1092 9.1481L42.1733 8.79588C41.7996 9.78881 41.3993 10.8616 40.9724 12.0143L41.9101 12.3616ZM43.1098 9.14646C43.482 8.14682 43.8434 7.20626 44.1939 6.32472L43.2646 5.95526C42.9111 6.84438 42.5471 7.79183 42.1727 8.79752L43.1098 9.14646ZM44.1927 6.32758C44.5542 5.43447 44.9103 4.57893 45.2608 3.76095L44.3417 3.36703C43.9882 4.19171 43.6296 5.05351 43.2658 5.95239L44.1927 6.32758ZM45.2608 3.76095C45.6099 2.94634 45.9803 2.13154 46.3719 1.31654L45.4706 0.883432C45.0729 1.71111 44.6966 2.53897 44.3417 3.36703L45.2608 3.76095ZM45.9212 1.59999H46.8812V0.599988H45.9212V1.59999ZM46.4306 1.31654C46.8222 2.13154 47.1926 2.94634 47.5417 3.76095L48.4608 3.36703C48.1059 2.53897 47.7296 1.71111 47.3319 0.883432L46.4306 1.31654ZM47.5417 3.76095C47.8915 4.57726 48.2416 5.4312 48.5919 6.32281L49.5226 5.95716C49.1689 5.05678 48.815 4.19339 48.4608 3.36703L47.5417 3.76095ZM48.5946 6.32952C48.955 7.20932 49.321 8.14826 49.6927 9.14646L50.6298 8.79752C50.2548 7.79038 49.8849 6.84132 49.5199 5.95045L48.5946 6.32952ZM49.6933 9.1481C50.0668 10.1406 50.4723 11.2131 50.9098 12.3654L51.8447 12.0105C51.4075 10.8589 51.0023 9.78736 50.6292 8.79587L49.6933 9.1481ZM51.3773 11.688H50.1772V12.688H51.3773V11.688ZM45.9119 2.14591C45.5044 3.06817 45.1077 4.00637 44.7217 4.9605L45.6488 5.33548C46.0308 4.39094 46.4234 3.46247 46.8266 2.55007L45.9119 2.14591ZM44.7199 4.965C44.3451 5.91807 43.9545 6.94541 43.5482 8.04692L44.4863 8.39305C44.8906 7.29723 45.2787 6.27658 45.6506 5.33098L44.7199 4.965ZM44.0173 8.71999H48.7373V7.71999H44.0173V8.71999ZM49.2063 8.04692C48.7995 6.94409 48.403 5.91523 48.0168 4.9605L47.0897 5.33548C47.4715 6.27941 47.8644 7.29855 48.2682 8.39305L49.2063 8.04692ZM48.0168 4.9605C47.6308 4.00637 47.2341 3.06817 46.8266 2.14591L45.9119 2.55007C46.3151 3.46247 46.7077 4.39094 47.0897 5.33548L48.0168 4.9605ZM15.504 29.572H16.004V29.072H15.504V29.572ZM15.504 32.188V32.688H16.004V32.188H15.504ZM4.992 32.188H4.492V32.688H4.992V32.188ZM4.992 15.556V15.056H4.492V15.556H4.992ZM8.016 15.556H8.516V15.056H8.016V15.556ZM8.016 29.572H7.516V30.072H8.016V29.572ZM15.004 29.572V32.188H16.004V29.572H15.004ZM15.504 31.688H4.992V32.688H15.504V31.688ZM5.492 32.188V15.556H4.492V32.188H5.492ZM4.992 16.056H8.016V15.056H4.992V16.056ZM7.516 15.556V29.572H8.516V15.556H7.516ZM8.016 30.072H15.504V29.072H8.016V30.072ZM17.2179 23.068L16.7543 22.8807L16.7513 22.8885L17.2179 23.068ZM18.5379 21.004L18.8915 21.3576L18.8966 21.3524L18.5379 21.004ZM20.4099 19.756L20.5902 20.2225L20.5993 20.2188L20.4099 19.756ZM26.6019 20.932L26.2295 21.2656L26.2322 21.2686L26.6019 20.932ZM28.0419 26.284L27.5434 26.2456L27.5419 26.2648V26.284H28.0419ZM28.0179 26.812V27.312H28.4704L28.5155 26.8617L28.0179 26.812ZM19.7379 26.812V26.312H19.1967L19.2395 26.8515L19.7379 26.812ZM20.7939 29.164L20.4599 29.5362L20.4701 29.545L20.7939 29.164ZM25.4739 29.788L25.3683 29.2993L25.3655 29.2999L25.4739 29.788ZM26.8659 29.38L27.3595 29.3002L27.2574 28.6682L26.669 28.9204L26.8659 29.38ZM27.2499 31.756L27.4735 32.2032L27.8021 32.0389L27.7435 31.6762L27.2499 31.756ZM26.5779 32.02L26.719 32.4997L26.7276 32.4972L26.7361 32.4943L26.5779 32.02ZM25.6179 32.236L25.5323 31.7434L25.5196 31.7456L25.5071 31.7484L25.6179 32.236ZM24.4659 32.428L24.4086 31.9313L24.4659 32.428ZM20.3139 32.02L20.1235 32.4824L20.1314 32.4855L20.3139 32.02ZM18.2979 30.652L17.9248 30.9848L17.9294 30.9898L18.2979 30.652ZM17.1219 28.588L16.6457 28.7404L16.6466 28.7432L17.1219 28.588ZM25.1619 24.676V25.176H25.6619V24.676H25.1619ZM24.9939 23.548L24.5156 23.6936L24.5175 23.6996L24.9939 23.548ZM24.4899 22.612L24.0928 22.9157L24.1028 22.9288L24.1136 22.9412L24.4899 22.612ZM23.6979 21.988L23.4651 22.4304L23.4787 22.4376L23.4928 22.4439L23.6979 21.988ZM21.4179 22.012L21.6329 22.4634L21.6415 22.4593L21.6499 22.4549L21.4179 22.012ZM20.5539 22.66L20.179 22.3292L20.1734 22.3356L20.168 22.3421L20.5539 22.66ZM20.0259 23.596L20.4958 23.7669L20.0259 23.596ZM19.7619 24.676L19.2661 24.6113L19.1925 25.176H19.7619V24.676ZM17.2379 25.972C17.2379 24.9152 17.3912 24.0103 17.6846 23.2475L16.7513 22.8885C16.4047 23.7896 16.2379 24.8207 16.2379 25.972H17.2379ZM17.6816 23.2552C17.9965 22.4753 18.4022 21.8468 18.8915 21.3575L18.1844 20.6504C17.5857 21.2491 17.1113 21.9967 16.7543 22.8808L17.6816 23.2552ZM18.8966 21.3524C19.3921 20.8423 19.9558 20.4675 20.5901 20.2224L20.2297 19.2896C19.4561 19.5885 18.7718 20.0457 18.1793 20.6556L18.8966 21.3524ZM20.5993 20.2188C21.2452 19.9545 21.901 19.824 22.5699 19.824V18.824C21.7668 18.824 20.9827 18.9815 20.2206 19.2932L20.5993 20.2188ZM22.5699 19.824C24.1869 19.824 25.3833 20.3206 26.2295 21.2655L26.9744 20.5984C25.9006 19.3994 24.409 18.824 22.5699 18.824V19.824ZM26.2322 21.2686C27.0925 22.2135 27.5659 23.6712 27.5659 25.732H28.5659C28.5659 23.5367 28.0634 21.7945 26.9717 20.5954L26.2322 21.2686ZM27.5659 25.732C27.5659 25.876 27.5587 26.0468 27.5434 26.2456L28.5405 26.3223C28.5572 26.1052 28.5659 25.9079 28.5659 25.732H27.5659ZM27.5419 26.284C27.5419 26.4624 27.5345 26.6216 27.5204 26.7622L28.5155 26.8617C28.5334 26.6824 28.5419 26.4895 28.5419 26.284H27.5419ZM28.0179 26.312H19.7379V27.312H28.0179V26.312ZM19.2395 26.8515C19.3274 27.9595 19.7215 28.8734 20.46 29.5361L21.1279 28.7919C20.6183 28.3346 20.3084 27.6805 20.2364 26.7724L19.2395 26.8515ZM20.4701 29.545C21.2325 30.193 22.2853 30.48 23.5539 30.48V29.48C22.4225 29.48 21.6354 29.223 21.1178 28.783L20.4701 29.545ZM23.5539 30.48C24.2877 30.48 24.9647 30.4133 25.5824 30.2761L25.3655 29.2999C24.8311 29.4186 24.2282 29.48 23.5539 29.48V30.48ZM25.5796 30.2767C26.1854 30.1457 26.6846 30.0017 27.0629 29.8396L26.669 28.9204C26.3752 29.0463 25.9465 29.1743 25.3683 29.2993L25.5796 30.2767ZM26.3723 29.4598L26.7563 31.8358L27.7435 31.6762L27.3595 29.3002L26.3723 29.4598ZM27.0263 31.3088C26.8971 31.3734 26.6985 31.4527 26.4198 31.5456L26.7361 32.4943C27.0333 32.3952 27.2828 32.2986 27.4735 32.2032L27.0263 31.3088ZM26.4369 31.5403C26.1877 31.6136 25.8871 31.6817 25.5323 31.7434L25.7036 32.7286C26.0848 32.6623 26.4242 32.5864 26.719 32.4997L26.4369 31.5403ZM25.5071 31.7484C25.1753 31.8238 24.8094 31.885 24.4086 31.9313L24.5233 32.9247C24.9545 32.8749 25.3566 32.8081 25.7287 32.7236L25.5071 31.7484ZM24.4086 31.9313C24.0122 31.977 23.6074 32 23.1939 32V33C23.6445 33 24.0876 32.975 24.5233 32.9247L24.4086 31.9313ZM23.1939 32C22.1368 32 21.2414 31.8466 20.4965 31.5545L20.1314 32.4855C21.0185 32.8334 22.043 33 23.1939 33V32ZM20.5043 31.5576C19.7473 31.2459 19.1389 30.8295 18.6665 30.3141L17.9294 30.9898C18.513 31.6265 19.2486 32.122 20.1236 32.4823L20.5043 31.5576ZM18.6711 30.3192C18.1909 29.7807 17.8327 29.1538 17.5972 28.4328L16.6466 28.7432C16.9232 29.5901 17.349 30.3392 17.9248 30.9848L18.6711 30.3192ZM17.5981 28.4356C17.3597 27.6905 17.2379 26.8706 17.2379 25.972H16.2379C16.2379 26.9614 16.3721 27.8854 16.6457 28.7404L17.5981 28.4356ZM25.6619 24.676C25.6619 24.2288 25.5992 23.8013 25.4704 23.3964L24.5175 23.6996C24.6126 23.9987 24.6619 24.3232 24.6619 24.676H25.6619ZM25.4723 23.4024C25.3424 22.9755 25.1426 22.5986 24.8662 22.2827L24.1136 22.9412C24.2853 23.1374 24.4215 23.3845 24.5156 23.6936L25.4723 23.4024ZM24.8871 22.3083C24.6274 21.9687 24.2968 21.7092 23.9031 21.532L23.4928 22.4439C23.7391 22.5548 23.9364 22.7113 24.0928 22.9157L24.8871 22.3083ZM23.9308 21.5455C23.5389 21.3392 23.0866 21.248 22.5939 21.248V22.248C22.9652 22.248 23.249 22.3167 23.4651 22.4304L23.9308 21.5455ZM22.5939 21.248C22.0797 21.248 21.6054 21.3493 21.1859 21.5691L21.6499 22.4549C21.9024 22.3226 22.2121 22.248 22.5939 22.248V21.248ZM21.203 21.5606C20.8077 21.7488 20.4648 22.0053 20.179 22.3292L20.9289 22.9908C21.1231 22.7707 21.3562 22.5952 21.6329 22.4634L21.203 21.5606ZM20.168 22.3421C19.9056 22.6607 19.7022 23.0231 19.556 23.4251L20.4958 23.7669C20.6056 23.4649 20.7542 23.2033 20.9399 22.9778L20.168 22.3421ZM19.556 23.4251C19.4157 23.8111 19.3189 24.2067 19.2661 24.6113L20.2577 24.7407C20.301 24.4092 20.3802 24.0848 20.4958 23.7669L19.556 23.4251ZM19.7619 25.176H25.1619V24.176H19.7619V25.176ZM34.3609 32.188L33.9111 32.4063L34.0478 32.688H34.3609V32.188ZM31.8889 26.524L31.4227 26.7049L31.4244 26.7091L31.8889 26.524ZM29.6089 19.636V19.136H28.949L29.1275 19.7713L29.6089 19.636ZM32.7049 19.636L33.1899 19.5147L33.0953 19.136H32.7049V19.636ZM33.3049 21.916L32.8226 22.0484L32.826 22.0597L33.3049 21.916ZM34.0489 24.34L33.5717 24.4897L33.5755 24.5009L34.0489 24.34ZM34.8649 26.692L34.3934 26.859L34.3979 26.8708L34.8649 26.692ZM35.6569 28.732L35.1918 28.9156L35.6569 30.0938L36.122 28.9156L35.6569 28.732ZM36.4249 26.692L36.8951 26.8621L36.8962 26.8589L36.4249 26.692ZM37.2169 24.34L36.7425 24.1819L36.7407 24.1876L37.2169 24.34ZM37.9849 21.916L38.4638 22.0597L38.4646 22.0571L37.9849 21.916ZM38.6089 19.636V19.136H38.2185L38.1238 19.5147L38.6089 19.636ZM41.6089 19.636L42.0902 19.7713L42.2688 19.136H41.6089V19.636ZM39.3049 26.524L38.8399 26.3401L38.8392 26.3419L39.3049 26.524ZM36.8569 32.188V32.688H37.17L37.3067 32.4063L36.8569 32.188ZM34.8107 31.9696C34.0171 30.3348 33.1979 28.4583 32.3534 26.3389L31.4244 26.7091C32.2758 28.8457 33.1047 30.7451 33.9111 32.4063L34.8107 31.9696ZM32.355 26.3431C31.5294 24.2155 30.7743 21.9349 30.0902 19.5007L29.1275 19.7713C29.8194 22.2331 30.5844 24.5445 31.4227 26.7049L32.355 26.3431ZM29.6089 20.136H32.7049V19.136H29.6089V20.136ZM32.2198 19.7573C32.3969 20.4655 32.5979 21.2292 32.8227 22.0483L33.787 21.7836C33.5639 20.9707 33.3649 20.2145 33.1899 19.5147L32.2198 19.7573ZM32.826 22.0597C33.0666 22.8617 33.3152 23.6717 33.5718 24.4897L34.5259 24.1903C34.2706 23.3763 34.0232 22.5703 33.7838 21.7723L32.826 22.0597ZM33.5755 24.5009C33.8481 25.3029 34.1208 26.0889 34.3936 26.8589L35.3362 26.5251C35.0649 25.7591 34.7936 24.9771 34.5223 24.179L33.5755 24.5009ZM34.3979 26.8708C34.6864 27.6241 34.951 28.3057 35.1918 28.9156L36.122 28.5484C35.8827 27.9423 35.6193 27.2639 35.3318 26.5132L34.3979 26.8708ZM36.122 28.9156C36.3641 28.3022 36.6218 27.6176 36.8951 26.8621L35.9547 26.5219C35.684 27.2703 35.4297 27.9457 35.1918 28.5484L36.122 28.9156ZM36.8962 26.8589C37.1699 26.0859 37.4356 25.2971 37.6931 24.4924L36.7407 24.1876C36.4862 24.9829 36.2238 25.762 35.9536 26.5251L36.8962 26.8589ZM37.6912 24.4981C37.9648 23.6775 38.2223 22.8646 38.4638 22.0597L37.506 21.7723C37.2675 22.5673 37.013 23.3705 36.7425 24.1819L37.6912 24.4981ZM38.4646 22.0571C38.7062 21.2356 38.916 20.4689 39.0939 19.7573L38.1238 19.5147C37.9497 20.2111 37.7436 20.9644 37.5052 21.7749L38.4646 22.0571ZM38.6089 20.136H41.6089V19.136H38.6089V20.136ZM41.1275 19.5007C40.4437 21.9339 39.681 24.2135 38.8399 26.3401L39.7698 26.7079C40.6247 24.5464 41.3981 22.2341 42.0902 19.7713L41.1275 19.5007ZM38.8392 26.3419C38.0109 28.4605 37.2001 30.336 36.4071 31.9696L37.3067 32.4063C38.1136 30.744 38.9349 28.8435 39.7705 26.7061L38.8392 26.3419ZM36.8569 31.688H34.3609V32.688H36.8569V31.688ZM43.2804 23.068L42.8168 22.8807L42.8138 22.8885L43.2804 23.068ZM44.6004 21.004L44.954 21.3576L44.9591 21.3524L44.6004 21.004ZM46.4724 19.756L46.6527 20.2225L46.6618 20.2188L46.4724 19.756ZM52.6644 20.932L52.292 21.2656L52.2947 21.2686L52.6644 20.932ZM54.1044 26.284L53.6059 26.2456L53.6044 26.2648V26.284H54.1044ZM54.0804 26.812V27.312H54.5329L54.578 26.8617L54.0804 26.812ZM45.8004 26.812V26.312H45.2592L45.302 26.8515L45.8004 26.812ZM46.8564 29.164L46.5224 29.5362L46.5326 29.545L46.8564 29.164ZM51.5364 29.788L51.4308 29.2993L51.428 29.2999L51.5364 29.788ZM52.9284 29.38L53.422 29.3002L53.3199 28.6682L52.7315 28.9204L52.9284 29.38ZM53.3124 31.756L53.536 32.2032L53.8647 32.0389L53.806 31.6762L53.3124 31.756ZM52.6404 32.02L52.7815 32.4997L52.7901 32.4972L52.7986 32.4943L52.6404 32.02ZM51.6804 32.236L51.5948 31.7434L51.5821 31.7456L51.5696 31.7484L51.6804 32.236ZM50.5284 32.428L50.4711 31.9313L50.5284 32.428ZM46.3764 32.02L46.186 32.4824L46.1939 32.4855L46.3764 32.02ZM44.3604 30.652L43.9873 30.9848L43.9919 30.9898L44.3604 30.652ZM43.1844 28.588L42.7082 28.7404L42.7091 28.7432L43.1844 28.588ZM51.2244 24.676V25.176H51.7244V24.676H51.2244ZM51.0564 23.548L50.5781 23.6936L50.58 23.6996L51.0564 23.548ZM50.5524 22.612L50.1553 22.9157L50.1653 22.9288L50.1762 22.9412L50.5524 22.612ZM49.7604 21.988L49.5276 22.4304L49.5412 22.4376L49.5553 22.4439L49.7604 21.988ZM47.4804 22.012L47.6954 22.4634L47.704 22.4593L47.7124 22.4549L47.4804 22.012ZM46.6164 22.66L46.2415 22.3292L46.2359 22.3356L46.2305 22.3421L46.6164 22.66ZM46.0884 23.596L46.5583 23.7669L46.0884 23.596ZM45.8244 24.676L45.3286 24.6113L45.255 25.176H45.8244V24.676ZM43.3004 25.972C43.3004 24.9152 43.4537 24.0103 43.7471 23.2475L42.8138 22.8885C42.4672 23.7896 42.3004 24.8207 42.3004 25.972H43.3004ZM43.7441 23.2552C44.059 22.4753 44.4647 21.8468 44.954 21.3575L44.2469 20.6504C43.6482 21.2491 43.1738 21.9967 42.8168 22.8808L43.7441 23.2552ZM44.9591 21.3524C45.4546 20.8423 46.0183 20.4675 46.6526 20.2224L46.2922 19.2896C45.5186 19.5885 44.8343 20.0457 44.2418 20.6556L44.9591 21.3524ZM46.6618 20.2188C47.3077 19.9545 47.9635 19.824 48.6324 19.824V18.824C47.8293 18.824 47.0452 18.9815 46.2831 19.2932L46.6618 20.2188ZM48.6324 19.824C50.2494 19.824 51.4458 20.3206 52.292 21.2655L53.0369 20.5984C51.9631 19.3994 50.4715 18.824 48.6324 18.824V19.824ZM52.2947 21.2686C53.155 22.2135 53.6284 23.6712 53.6284 25.732H54.6284C54.6284 23.5367 54.1259 21.7945 53.0342 20.5954L52.2947 21.2686ZM53.6284 25.732C53.6284 25.876 53.6212 26.0468 53.6059 26.2456L54.603 26.3223C54.6197 26.1052 54.6284 25.9079 54.6284 25.732H53.6284ZM53.6044 26.284C53.6044 26.4624 53.597 26.6216 53.5829 26.7622L54.578 26.8617C54.5959 26.6824 54.6044 26.4895 54.6044 26.284H53.6044ZM54.0804 26.312H45.8004V27.312H54.0804V26.312ZM45.302 26.8515C45.3899 27.9595 45.784 28.8734 46.5225 29.5361L47.1904 28.7919C46.6808 28.3346 46.3709 27.6805 46.2989 26.7724L45.302 26.8515ZM46.5326 29.545C47.295 30.193 48.3478 30.48 49.6164 30.48V29.48C48.485 29.48 47.6979 29.223 47.1803 28.783L46.5326 29.545ZM49.6164 30.48C50.3502 30.48 51.0272 30.4133 51.6449 30.2761L51.428 29.2999C50.8936 29.4186 50.2907 29.48 49.6164 29.48V30.48ZM51.6421 30.2767C52.2479 30.1457 52.7471 30.0017 53.1254 29.8396L52.7315 28.9204C52.4377 29.0463 52.009 29.1743 51.4308 29.2993L51.6421 30.2767ZM52.4348 29.4598L52.8188 31.8358L53.806 31.6762L53.422 29.3002L52.4348 29.4598ZM53.0888 31.3088C52.9596 31.3734 52.761 31.4527 52.4823 31.5456L52.7986 32.4943C53.0958 32.3952 53.3453 32.2986 53.536 32.2032L53.0888 31.3088ZM52.4994 31.5403C52.2502 31.6136 51.9496 31.6817 51.5948 31.7434L51.7661 32.7286C52.1473 32.6623 52.4867 32.5864 52.7815 32.4997L52.4994 31.5403ZM51.5696 31.7484C51.2378 31.8238 50.8719 31.885 50.4711 31.9313L50.5858 32.9247C51.017 32.8749 51.4191 32.8081 51.7912 32.7236L51.5696 31.7484ZM50.4711 31.9313C50.0747 31.977 49.6699 32 49.2564 32V33C49.707 33 50.1501 32.975 50.5858 32.9247L50.4711 31.9313ZM49.2564 32C48.1993 32 47.3039 31.8466 46.559 31.5545L46.1939 32.4855C47.081 32.8334 48.1055 33 49.2564 33V32ZM46.5668 31.5576C45.8098 31.2459 45.2014 30.8295 44.729 30.3141L43.9919 30.9898C44.5755 31.6265 45.3111 32.122 46.1861 32.4823L46.5668 31.5576ZM44.7336 30.3192C44.2534 29.7807 43.8952 29.1538 43.6597 28.4328L42.7091 28.7432C42.9857 29.5901 43.4115 30.3392 43.9873 30.9848L44.7336 30.3192ZM43.6606 28.4356C43.4222 27.6905 43.3004 26.8706 43.3004 25.972H42.3004C42.3004 26.9614 42.4346 27.8854 42.7082 28.7404L43.6606 28.4356ZM51.7244 24.676C51.7244 24.2288 51.6617 23.8013 51.5329 23.3964L50.58 23.6996C50.6751 23.9987 50.7244 24.3232 50.7244 24.676H51.7244ZM51.5348 23.4024C51.4049 22.9755 51.2051 22.5986 50.9287 22.2827L50.1762 22.9412C50.3478 23.1374 50.484 23.3845 50.5781 23.6936L51.5348 23.4024ZM50.9496 22.3083C50.6899 21.9687 50.3593 21.7092 49.9656 21.532L49.5553 22.4439C49.8016 22.5548 49.9989 22.7113 50.1553 22.9157L50.9496 22.3083ZM49.9933 21.5455C49.6014 21.3392 49.1491 21.248 48.6564 21.248V22.248C49.0277 22.248 49.3115 22.3167 49.5276 22.4304L49.9933 21.5455ZM48.6564 21.248C48.1422 21.248 47.6679 21.3493 47.2484 21.5691L47.7124 22.4549C47.965 22.3226 48.2746 22.248 48.6564 22.248V21.248ZM47.2655 21.5606C46.8702 21.7488 46.5273 22.0053 46.2415 22.3292L46.9914 22.9908C47.1856 22.7707 47.4187 22.5952 47.6954 22.4634L47.2655 21.5606ZM46.2305 22.3421C45.9681 22.6607 45.7647 23.0231 45.6185 23.4251L46.5583 23.7669C46.6681 23.4649 46.8167 23.2033 47.0024 22.9778L46.2305 22.3421ZM45.6185 23.4251C45.4782 23.8111 45.3814 24.2067 45.3286 24.6113L46.3202 24.7407C46.3635 24.4092 46.4427 24.0848 46.5583 23.7669L45.6185 23.4251ZM45.8244 25.176H51.2244V24.176H45.8244V25.176Z" fill="black"/>
</g>
<defs>
<filter id="filter0_d_1_18" x="0.439941" y="0.860107" width="57.6885" height="39.6399" filterUnits="userSpaceOnUse" color-interpolation-filters="sRGB">
<feFlood flood-opacity="0" result="BackgroundImageFix"/>
<feColorMatrix in="SourceAlpha" type="matrix" values="0 0 0 0 0 0 0 0 0 0 0 0 0 0 0 0 0 0 127 0" result="hardAlpha"/>
<feOffset dy="4"/>
<feGaussianBlur stdDeviation="2"/>
<feComposite in2="hardAlpha" operator="out"/>
<feColorMatrix type="matrix" values="0 0 0 0 0 0 0 0 0 0 0 0 0 0 0 0 0 0 0.25 0"/>
<feBlend mode="normal" in2="BackgroundImageFix" result="effect1_dropShadow_1_18"/>
<feBlend mode="normal" in="SourceGraphic" in2="effect1_dropShadow_1_18" result="shape"/>
</filter>
</defs>
</svg>
