<svg width="77" height="33" viewBox="0 0 77 33" fill="none" xmlns="http://www.w3.org/2000/svg">
<path d="M0.44 11.9121V0.824109H6.76V1.76811H1.528V5.67211H6.168V6.61611H1.528V11.9121H0.44ZM16.1445 4.15211C16.1445 4.98411 15.9258 5.64011 15.4885 6.12011C15.0512 6.60011 14.4752 6.94678 13.7605 7.16011C13.9312 7.37344 14.1498 7.66144 14.4165 8.02411C14.6938 8.38678 14.9765 8.78678 15.2645 9.22411C15.5525 9.65078 15.8352 10.0988 16.1125 10.5681C16.3898 11.0374 16.6245 11.4854 16.8165 11.9121H15.6485C15.4245 11.4854 15.1792 11.0588 14.9125 10.6321C14.6565 10.2054 14.3898 9.79478 14.1125 9.40011C13.8458 8.99478 13.5845 8.62144 13.3285 8.28011C13.0725 7.93878 12.8485 7.64011 12.6565 7.38411C12.3152 7.41611 11.9738 7.43211 11.6325 7.43211H9.8405V11.9121H8.7525V1.03211C9.1365 0.925442 9.5845 0.850775 10.0965 0.808109C10.6192 0.754775 11.0992 0.728108 11.5365 0.728108C13.0618 0.728108 14.2085 1.01611 14.9765 1.59211C15.7552 2.16811 16.1445 3.02144 16.1445 4.15211ZM11.6645 1.67211C11.2592 1.67211 10.9018 1.68811 10.5925 1.72011C10.2938 1.74144 10.0432 1.76278 9.8405 1.78411V6.50411H11.3445C11.8458 6.50411 12.3205 6.48278 12.7685 6.44011C13.2165 6.38678 13.6058 6.28011 13.9365 6.12011C14.2672 5.94944 14.5285 5.70944 14.7205 5.40011C14.9125 5.09078 15.0085 4.66944 15.0085 4.13611C15.0085 3.64544 14.9125 3.24011 14.7205 2.92011C14.5285 2.60011 14.2778 2.34944 13.9685 2.16811C13.6592 1.97611 13.3018 1.84811 12.8965 1.78411C12.5018 1.70944 12.0912 1.67211 11.6645 1.67211ZM28.5951 6.36011C28.5951 7.30944 28.4565 8.14678 28.1791 8.87211C27.9018 9.59744 27.5231 10.2054 27.0431 10.6961C26.5738 11.1761 26.0245 11.5388 25.3951 11.7841C24.7658 12.0294 24.0991 12.1521 23.3951 12.1521C22.6911 12.1521 22.0245 12.0294 21.3951 11.7841C20.7658 11.5388 20.2111 11.1761 19.7311 10.6961C19.2618 10.2054 18.8885 9.59744 18.6111 8.87211C18.3338 8.14678 18.1951 7.30944 18.1951 6.36011C18.1951 5.41078 18.3338 4.57878 18.6111 3.86411C18.8885 3.13878 19.2618 2.53611 19.7311 2.05611C20.2111 1.56544 20.7658 1.19744 21.3951 0.952108C22.0245 0.706776 22.6911 0.584109 23.3951 0.584109C24.0991 0.584109 24.7658 0.706776 25.3951 0.952108C26.0245 1.19744 26.5738 1.56544 27.0431 2.05611C27.5231 2.53611 27.9018 3.13878 28.1791 3.86411C28.4565 4.57878 28.5951 5.41078 28.5951 6.36011ZM27.4431 6.36011C27.4431 5.61344 27.3471 4.94678 27.1551 4.36011C26.9631 3.76278 26.6911 3.25611 26.3391 2.84011C25.9871 2.42411 25.5605 2.10944 25.0591 1.89611C24.5685 1.67211 24.0138 1.56011 23.3951 1.56011C22.7765 1.56011 22.2165 1.67211 21.7151 1.89611C21.2245 2.10944 20.8031 2.42411 20.4511 2.84011C20.0991 3.25611 19.8271 3.76278 19.6351 4.36011C19.4431 4.94678 19.3471 5.61344 19.3471 6.36011C19.3471 7.10678 19.4431 7.77878 19.6351 8.37611C19.8271 8.96278 20.0991 9.46411 20.4511 9.88011C20.8031 10.2961 21.2245 10.6161 21.7151 10.8401C22.2165 11.0641 22.7765 11.1761 23.3951 11.1761C24.0138 11.1761 24.5685 11.0641 25.0591 10.8401C25.5605 10.6161 25.9871 10.2961 26.3391 9.88011C26.6911 9.46411 26.9631 8.96278 27.1551 8.37611C27.3471 7.77878 27.4431 7.10678 27.4431 6.36011ZM37.8238 0.824109V1.76811H34.2718V11.9121H33.1838V1.76811H29.6318V0.824109H37.8238ZM46.1773 11.9121C45.9746 11.3681 45.7826 10.8454 45.6013 10.3441C45.4199 9.84278 45.2439 9.35211 45.0733 8.87211H39.6813C39.4999 9.35211 39.3186 9.84278 39.1373 10.3441C38.9559 10.8454 38.7693 11.3681 38.5773 11.9121H37.4413C37.8679 10.7601 38.2679 9.68811 38.6413 8.69611C39.0146 7.69344 39.3773 6.74944 39.7293 5.86411C40.0919 4.96811 40.4493 4.10944 40.8013 3.28811C41.1533 2.46678 41.5266 1.64544 41.9213 0.824109H42.8813C43.2759 1.64544 43.6493 2.46678 44.0013 3.28811C44.3533 4.10944 44.7053 4.96811 45.0573 5.86411C45.4199 6.74944 45.7879 7.69344 46.1613 8.69611C46.5346 9.68811 46.9399 10.7601 47.3773 11.9121H46.1773ZM42.3693 2.07211C41.9639 2.98944 41.5693 3.92278 41.1853 4.87211C40.8119 5.82144 40.4226 6.84544 40.0173 7.94411H44.7373C44.3319 6.84544 43.9373 5.82144 43.5533 4.87211C43.1693 3.92278 42.7746 2.98944 42.3693 2.07211ZM5.696 15.1121C8.112 15.1121 9.96 15.5521 11.24 16.4321C12.536 17.3121 13.184 18.6881 13.184 20.5601C13.184 21.5361 13.008 22.3761 12.656 23.0801C12.32 23.7681 11.824 24.3361 11.168 24.7841C10.512 25.2161 9.712 25.5361 8.768 25.7441C7.824 25.9521 6.744 26.0561 5.528 26.0561H4.016V31.9121H0.992V15.5201C1.696 15.3601 2.472 15.2561 3.32 15.2081C4.184 15.1441 4.976 15.1121 5.696 15.1121ZM5.912 17.7281C5.144 17.7281 4.512 17.7521 4.016 17.8001V23.4641H5.48C6.936 23.4641 8.056 23.2641 8.84 22.8641C9.624 22.4481 10.016 21.6721 10.016 20.5361C10.016 19.9921 9.912 19.5361 9.704 19.1681C9.496 18.8001 9.208 18.5121 8.84 18.3041C8.472 18.0961 8.032 17.9521 7.52 17.8721C7.024 17.7761 6.488 17.7281 5.912 17.7281ZM14.4254 25.6961C14.4254 24.5921 14.5854 23.6241 14.9054 22.7921C15.2414 21.9601 15.6814 21.2721 16.2254 20.7281C16.7694 20.1681 17.3934 19.7521 18.0974 19.4801C18.8014 19.1921 19.5214 19.0481 20.2574 19.0481C21.9854 19.0481 23.3294 19.5841 24.2894 20.6561C25.2654 21.7281 25.7534 23.3281 25.7534 25.4561C25.7534 25.6161 25.7454 25.8001 25.7294 26.0081C25.7294 26.2001 25.7214 26.3761 25.7054 26.5361H17.4254C17.5054 27.5441 17.8574 28.3281 18.4814 28.8881C19.1214 29.4321 20.0414 29.7041 21.2414 29.7041C21.9454 29.7041 22.5854 29.6401 23.1614 29.5121C23.7534 29.3841 24.2174 29.2481 24.5534 29.1041L24.9374 31.4801C24.7774 31.5601 24.5534 31.6481 24.2654 31.7441C23.9934 31.8241 23.6734 31.8961 23.3054 31.9601C22.9534 32.0401 22.5694 32.1041 22.1534 32.1521C21.7374 32.2001 21.3134 32.2241 20.8814 32.2241C19.7774 32.2241 18.8174 32.0641 18.0014 31.7441C17.1854 31.4081 16.5134 30.9521 15.9854 30.3761C15.4574 29.7841 15.0654 29.0961 14.8094 28.3121C14.5534 27.5121 14.4254 26.6401 14.4254 25.6961ZM22.8494 24.4001C22.8494 24.0001 22.7934 23.6241 22.6814 23.2721C22.5694 22.9041 22.4014 22.5921 22.1774 22.3361C21.9694 22.0641 21.7054 21.8561 21.3854 21.7121C21.0814 21.5521 20.7134 21.4721 20.2814 21.4721C19.8334 21.4721 19.4414 21.5601 19.1054 21.7361C18.7694 21.8961 18.4814 22.1121 18.2414 22.3841C18.0174 22.6561 17.8414 22.9681 17.7134 23.3201C17.5854 23.6721 17.4974 24.0321 17.4494 24.4001H22.8494ZM31.9764 29.8241C32.7444 29.8241 33.3044 29.7361 33.6564 29.5601C34.0084 29.3681 34.1844 29.0481 34.1844 28.6001C34.1844 28.1841 33.9924 27.8401 33.6084 27.5681C33.2404 27.2961 32.6244 27.0001 31.7604 26.6801C31.2324 26.4881 30.7444 26.2881 30.2964 26.0801C29.8644 25.8561 29.4884 25.6001 29.1684 25.3121C28.8484 25.0241 28.5924 24.6801 28.4004 24.2801C28.2244 23.8641 28.1364 23.3601 28.1364 22.7681C28.1364 21.6161 28.5604 20.7121 29.4084 20.0561C30.2564 19.3841 31.4084 19.0481 32.8644 19.0481C33.6004 19.0481 34.3044 19.1201 34.9764 19.2641C35.6484 19.3921 36.1524 19.5201 36.4884 19.6481L35.9604 22.0001C35.6404 21.8561 35.2324 21.7281 34.7364 21.6161C34.2404 21.4881 33.6644 21.4241 33.0084 21.4241C32.4164 21.4241 31.9364 21.5281 31.5684 21.7361C31.2004 21.9281 31.0164 22.2321 31.0164 22.6481C31.0164 22.8561 31.0484 23.0401 31.1124 23.2001C31.1924 23.3601 31.3204 23.5121 31.4964 23.6561C31.6724 23.7841 31.9044 23.9201 32.1924 24.0641C32.4804 24.1921 32.8324 24.3281 33.2484 24.4721C33.9364 24.7281 34.5204 24.9841 35.0004 25.2401C35.4804 25.4801 35.8724 25.7601 36.1764 26.0801C36.4964 26.3841 36.7284 26.7361 36.8724 27.1361C37.0164 27.5361 37.0884 28.0161 37.0884 28.5761C37.0884 29.7761 36.6404 30.6881 35.7444 31.3121C34.8644 31.9201 33.6004 32.2241 31.9524 32.2241C30.8484 32.2241 29.9604 32.1281 29.2884 31.9361C28.6164 31.7601 28.1444 31.6161 27.8724 31.5041L28.3764 29.0801C28.8084 29.2561 29.3204 29.4241 29.9124 29.5841C30.5204 29.7441 31.2084 29.8241 31.9764 29.8241ZM44.2171 29.8721C45.1131 29.8721 45.7931 29.8241 46.2571 29.7281V26.5121C46.0971 26.4641 45.8651 26.4161 45.5611 26.3681C45.2571 26.3201 44.9211 26.2961 44.5531 26.2961C44.2331 26.2961 43.9051 26.3201 43.5691 26.3681C43.2491 26.4161 42.9531 26.5041 42.6811 26.6321C42.4251 26.7601 42.2171 26.9441 42.0571 27.1841C41.8971 27.4081 41.8171 27.6961 41.8171 28.0481C41.8171 28.7361 42.0331 29.2161 42.4651 29.4881C42.8971 29.7441 43.4811 29.8721 44.2171 29.8721ZM43.9771 19.0481C44.9371 19.0481 45.7451 19.1681 46.4011 19.4081C47.0571 19.6481 47.5771 19.9841 47.9611 20.4161C48.3611 20.8481 48.6411 21.3761 48.8011 22.0001C48.9771 22.6081 49.0651 23.2801 49.0651 24.0161V31.6241C48.6171 31.7201 47.9371 31.8321 47.0251 31.9601C46.1291 32.1041 45.1131 32.1761 43.9771 32.1761C43.2251 32.1761 42.5371 32.1041 41.9131 31.9601C41.2891 31.8161 40.7531 31.5841 40.3051 31.2641C39.8731 30.9441 39.5291 30.5281 39.2731 30.0161C39.0331 29.5041 38.9131 28.8721 38.9131 28.1201C38.9131 27.4001 39.0491 26.7921 39.3211 26.2961C39.6091 25.8001 39.9931 25.4001 40.4731 25.0961C40.9531 24.7761 41.5051 24.5521 42.1291 24.4241C42.7691 24.2801 43.4331 24.2081 44.1211 24.2081C44.4411 24.2081 44.7771 24.2321 45.1291 24.2801C45.4811 24.3121 45.8571 24.3761 46.2571 24.4721V23.9921C46.2571 23.6561 46.2171 23.3361 46.1371 23.0321C46.0571 22.7281 45.9131 22.4641 45.7051 22.2401C45.5131 22.0001 45.2491 21.8161 44.9131 21.6881C44.5931 21.5601 44.1851 21.4961 43.6891 21.4961C43.0171 21.4961 42.4011 21.5441 41.8411 21.6401C41.2811 21.7361 40.8251 21.8481 40.4731 21.9761L40.1131 19.6241C40.4811 19.4961 41.0171 19.3681 41.7211 19.2401C42.4251 19.1121 43.1771 19.0481 43.9771 19.0481ZM54.9014 25.6001C54.9014 26.8801 55.2054 27.8881 55.8134 28.6241C56.4214 29.3441 57.2614 29.7041 58.3334 29.7041C58.7974 29.7041 59.1894 29.6881 59.5094 29.6561C59.8454 29.6081 60.1174 29.5601 60.3254 29.5121V22.3121C60.0694 22.1361 59.7254 21.9761 59.2934 21.8321C58.8774 21.6721 58.4294 21.5921 57.9494 21.5921C56.8934 21.5921 56.1174 21.9521 55.6214 22.6721C55.1414 23.3921 54.9014 24.3681 54.9014 25.6001ZM63.2294 31.5281C62.6534 31.7041 61.9254 31.8641 61.0454 32.0081C60.1814 32.1521 59.2694 32.2241 58.3094 32.2241C57.3174 32.2241 56.4294 32.0721 55.6454 31.7681C54.8614 31.4641 54.1894 31.0321 53.6294 30.4721C53.0854 29.8961 52.6614 29.2081 52.3574 28.4081C52.0694 27.5921 51.9254 26.6801 51.9254 25.6721C51.9254 24.6801 52.0454 23.7841 52.2854 22.9841C52.5414 22.1681 52.9094 21.4721 53.3894 20.8961C53.8694 20.3201 54.4534 19.8801 55.1414 19.5761C55.8294 19.2561 56.6214 19.0961 57.5174 19.0961C58.1254 19.0961 58.6614 19.1681 59.1254 19.3121C59.5894 19.4561 59.9894 19.6161 60.3254 19.7921V13.7681L63.2294 13.2881V31.5281ZM71.3343 29.8721C72.2303 29.8721 72.9103 29.8241 73.3743 29.7281V26.5121C73.2143 26.4641 72.9823 26.4161 72.6783 26.3681C72.3743 26.3201 72.0383 26.2961 71.6703 26.2961C71.3503 26.2961 71.0223 26.3201 70.6863 26.3681C70.3663 26.4161 70.0703 26.5041 69.7983 26.6321C69.5423 26.7601 69.3343 26.9441 69.1743 27.1841C69.0143 27.4081 68.9343 27.6961 68.9343 28.0481C68.9343 28.7361 69.1503 29.2161 69.5823 29.4881C70.0143 29.7441 70.5983 29.8721 71.3343 29.8721ZM71.0943 19.0481C72.0543 19.0481 72.8623 19.1681 73.5183 19.4081C74.1743 19.6481 74.6943 19.9841 75.0783 20.4161C75.4783 20.8481 75.7583 21.3761 75.9183 22.0001C76.0943 22.6081 76.1823 23.2801 76.1823 24.0161V31.6241C75.7343 31.7201 75.0543 31.8321 74.1423 31.9601C73.2463 32.1041 72.2303 32.1761 71.0943 32.1761C70.3423 32.1761 69.6543 32.1041 69.0303 31.9601C68.4063 31.8161 67.8703 31.5841 67.4223 31.2641C66.9903 30.9441 66.6463 30.5281 66.3903 30.0161C66.1503 29.5041 66.0303 28.8721 66.0303 28.1201C66.0303 27.4001 66.1663 26.7921 66.4383 26.2961C66.7263 25.8001 67.1103 25.4001 67.5903 25.0961C68.0703 24.7761 68.6223 24.5521 69.2463 24.4241C69.8863 24.2801 70.5503 24.2081 71.2383 24.2081C71.5583 24.2081 71.8943 24.2321 72.2463 24.2801C72.5983 24.3121 72.9743 24.3761 73.3743 24.4721V23.9921C73.3743 23.6561 73.3343 23.3361 73.2543 23.0321C73.1743 22.7281 73.0303 22.4641 72.8223 22.2401C72.6303 22.0001 72.3663 21.8161 72.0303 21.6881C71.7103 21.5601 71.3023 21.4961 70.8063 21.4961C70.1343 21.4961 69.5183 21.5441 68.9583 21.6401C68.3983 21.7361 67.9423 21.8481 67.5903 21.9761L67.2303 19.6241C67.5983 19.4961 68.1343 19.3681 68.8383 19.2401C69.5423 19.1121 70.2943 19.0481 71.0943 19.0481Z" fill="#BDBDBD"/>
</svg>
