<svg width="40" height="43" viewBox="0 0 40 43" fill="none" xmlns="http://www.w3.org/2000/svg">
<path d="M31.4093 25.1489C29.6815 25.0298 28.4304 24.9106 27.2984 24.7319C25.3323 24.4936 23.545 24.2552 19.9703 24.2552C16.4552 24.2552 14.6083 24.4936 12.6422 24.7319C11.4506 24.851 10.1995 25.0298 8.53131 25.1489C7.57806 25.1489 6.80355 24.7914 6.32692 24.1361C5.96945 23.5999 5.61199 22.7062 6.08861 21.1572C6.20777 20.8593 6.50566 20.6806 6.86313 20.7401C7.16102 20.8593 7.33975 21.1572 7.28017 21.5146C7.04186 22.3487 7.04186 23.0041 7.33975 23.4211C7.57806 23.7786 8.05469 23.9573 8.53131 23.9573C10.1399 23.8382 11.3315 23.719 12.523 23.5403C14.4891 23.302 16.336 23.0637 19.9703 23.0637C23.6046 23.0637 25.4515 23.302 27.4176 23.5403C28.6091 23.6595 29.8007 23.8382 31.4689 23.9573C31.9455 23.9573 32.4221 23.7786 32.6604 23.4211C32.9583 23.0041 33.0179 22.3487 32.72 21.5146C32.6009 21.2168 32.7796 20.8593 33.1371 20.7401C33.435 20.621 33.7924 20.7997 33.9116 21.1572C34.3882 22.6466 34.0307 23.5999 33.6733 24.1361C33.0775 24.7914 32.303 25.1489 31.4093 25.1489Z" fill="#BDBDBD"/>
<path d="M20.0298 36.8261H19.8511C13.4166 36.8261 8.88868 36.3495 4.12244 35.9324L3.10961 35.8132C2.81172 35.8132 2.57341 35.5154 2.57341 35.2175C2.57341 33.1322 2.81172 31.6428 3.16919 29.7959C3.4075 28.4851 3.64581 26.9957 3.88412 25.0296L0.369016 23.5997C0.130703 23.4806 -0.048031 23.2423 0.0115471 22.9444L0.309438 21.3358C0.369016 21.0379 0.607328 20.8591 0.905219 20.8591H6.32683L9.127 13.7098C9.06742 13.4715 9.30573 13.2927 9.54404 13.2927H30.3368C30.5751 13.2927 30.8134 13.4715 30.873 13.6502L33.6732 20.7996H39.0948C39.3927 20.7996 39.631 21.0379 39.6906 21.2762L39.9885 22.8848C40.048 23.1827 39.8693 23.421 39.631 23.5402L36.1159 24.97C36.3542 26.9957 36.5925 28.4256 36.8308 29.7363C37.1287 31.5832 37.4266 33.0727 37.4266 35.1579C37.4266 35.4558 37.1883 35.6941 36.8904 35.7537L35.7584 35.9324C30.9922 36.409 26.4642 36.8261 20.0298 36.8261ZM3.70539 34.6813L4.24159 34.7408C9.00784 35.2175 13.5358 35.6345 19.9702 35.6345C26.3451 35.6345 30.873 35.2175 35.6393 34.7408L36.1159 34.6813C36.0563 32.9535 35.8776 31.6428 35.5797 29.9746C35.3414 28.5447 35.0435 26.9361 34.8052 24.6721C34.8052 24.4338 34.9243 24.1359 35.1626 24.0764L38.6777 22.6465L38.6182 22.0507H33.2561C33.0178 22.0507 32.7795 21.872 32.7199 21.6932L29.9198 14.4843H9.96109L7.16092 21.6337C7.04176 21.872 6.86303 21.9911 6.62472 21.9911H1.26269L1.14353 22.6465L4.65864 24.0764C4.89695 24.1955 5.07569 24.4338 5.01611 24.6721C4.7778 26.9957 4.53948 28.6043 4.30117 29.9746C4.00328 31.6428 3.76497 32.9535 3.70539 34.6813Z" fill="#BDBDBD"/>
<path d="M23.0087 17.3442H16.8722C16.3956 17.3442 15.9785 16.9272 15.9785 16.4506C15.9785 15.9739 16.3956 15.5569 16.8722 15.5569H22.9492C23.4258 15.5569 23.8428 15.9739 23.8428 16.4506C23.8428 16.9272 23.4854 17.3442 23.0087 17.3442Z" fill="#BDBDBD"/>
<path d="M20.0296 38.5537H19.8509C12.7611 38.5537 8.23315 38.1963 3.22859 37.6601C2.9307 37.6005 2.69238 37.3026 2.69238 37.0047C2.75196 36.6472 3.04985 36.4685 3.34774 36.4685C8.3523 37.0047 12.8802 37.3026 19.9105 37.3026C27.0002 37.3026 31.5282 36.9451 36.4732 36.4685C36.7711 36.4685 37.0689 36.6472 37.1285 37.0047C37.1881 37.3026 36.9498 37.6005 36.5923 37.6601C31.6473 38.1963 27.1194 38.5537 20.0296 38.5537Z" fill="#BDBDBD"/>
<path d="M6.08831 42.1882H5.96916C3.16898 42.1882 2.87109 41.8904 2.87109 38.971C2.87109 38.6136 3.10941 38.3752 3.46687 38.3752C3.82434 38.3752 4.06266 38.6136 4.06266 38.971C4.06266 39.8051 4.06266 40.6988 4.24139 40.8775C4.36055 41.0563 5.13506 41.0563 5.96916 41.0563H6.08831C7.39903 41.0563 8.35228 41.0563 8.65017 40.8775C8.8289 40.7584 8.8289 40.1626 8.8289 39.4477C8.8289 39.0902 9.06722 38.8519 9.42469 38.8519C9.78215 38.8519 10.0205 39.0902 10.0205 39.4477C9.96089 42.1882 9.36511 42.1882 6.08831 42.1882Z" fill="#BDBDBD"/>
<path d="M33.792 42.1883C30.5152 42.1883 29.9194 42.1882 29.9194 39.3881C29.9194 39.0306 30.1577 38.7923 30.5152 38.7923C30.8727 38.7923 31.111 39.0306 31.111 39.3881C31.111 40.103 31.111 40.6988 31.2897 40.818C31.528 40.9967 32.4813 40.9967 33.8516 40.9967H33.9707C34.8048 40.9967 35.5794 40.9967 35.6985 40.818C35.8772 40.6392 35.8772 39.7455 35.8772 38.9115C35.8772 38.554 36.1156 38.3157 36.473 38.3157C36.8305 38.3157 37.0688 38.554 37.0688 38.9115C37.0688 41.8308 36.7709 42.1287 33.9707 42.1287H33.792V42.1883Z" fill="#BDBDBD"/>
<path d="M12.2251 32.3578C11.7484 32.3578 11.2122 32.2386 10.5569 32.1195C9.6632 31.9407 8.59079 31.7024 7.87585 31.8216C7.57796 31.9407 7.28007 32.0003 6.98218 32.0003C5.8502 32.0003 5.07568 31.2258 5.07568 30.0938C5.07568 28.9618 5.90978 27.7703 7.33965 27.7703C7.39923 27.7703 7.45881 27.7703 7.51839 27.7703C10.4377 28.5448 13.5358 29.3789 13.5358 31.2854C13.5358 31.5237 13.4166 32.3578 12.2251 32.3578ZM8.41206 30.5704C9.24615 30.5704 10.0802 30.7492 10.8548 30.9279C11.391 31.0471 11.9272 31.1662 12.2846 31.1662C12.3442 31.1662 12.3442 31.1662 12.3442 31.1662C12.1655 30.213 9.18657 29.3789 7.33965 28.9022C6.62471 28.9618 6.32682 29.6172 6.32682 30.0342C6.32682 30.3321 6.44598 30.7492 7.04176 30.7492C7.2205 30.7492 7.39923 30.6896 7.63754 30.63H7.69712C7.87585 30.63 8.11417 30.5704 8.41206 30.5704Z" fill="#BDBDBD"/>
<path d="M27.6559 32.3578C27.2985 32.3578 27.0006 32.2982 26.8218 32.1195C26.6431 32.0003 26.4048 31.7024 26.4048 31.2258C26.4048 29.3193 29.4433 28.4852 32.4222 27.7107C32.4818 27.7107 32.5413 27.7107 32.6009 27.7107C34.0308 27.7107 34.8649 28.9023 34.8649 30.0342C34.8649 31.4641 33.6733 32.2982 32.0647 31.8216C31.3498 31.7024 30.2774 31.9407 29.3837 32.1195C28.6688 32.2386 28.1325 32.3578 27.6559 32.3578ZM27.5368 31.1662C27.5368 31.1662 27.5963 31.1662 27.6559 31.1662C28.0134 31.1662 28.49 31.0471 29.0858 30.9279C29.8603 30.7492 30.6944 30.5704 31.5285 30.5704C31.7668 30.5704 32.0647 30.5704 32.2434 30.63H32.303C32.5413 30.6896 32.7201 30.7492 32.8988 30.7492C33.4946 30.7492 33.6137 30.2726 33.6137 30.0342C33.6137 29.6172 33.3158 28.9023 32.6009 28.9023C30.6944 29.3789 27.6559 30.213 27.5368 31.1662Z" fill="#BDBDBD"/>
<path d="M24.7963 32.3578H15.085C14.7276 32.3578 14.4893 32.1195 14.4893 31.762C14.4893 31.4046 14.7276 31.1663 15.085 31.1663H24.8558C25.2133 31.1663 25.4516 31.4046 25.4516 31.762C25.3921 32.1195 25.1537 32.3578 24.7963 32.3578Z" fill="#BDBDBD"/>
</svg>
