<svg width="40" height="43" viewBox="0 0 40 43" fill="none" xmlns="http://www.w3.org/2000/svg">
<path d="M20.1031 36.8994H19.948C13.0746 36.8994 8.68188 36.5893 3.824 36.0725C3.56561 36.0208 3.35889 35.8141 3.35889 35.504C3.41057 35.2456 3.66896 35.0389 3.92736 35.0389C8.78524 35.5557 13.178 35.8658 20.0514 35.8658C26.9248 35.8658 31.3175 35.5557 36.1754 35.0389C36.4338 34.9872 36.6922 35.194 36.7439 35.504C36.7956 35.7624 36.5888 36.0208 36.2788 36.0725C31.3692 36.5893 26.9764 36.8994 20.1031 36.8994Z" fill="#BDBDBD"/>
<path d="M7.75204 41.9121H7.64869C5.01303 41.9121 4.90967 41.3953 4.90967 37.416C4.90967 37.1059 5.11639 36.8992 5.42646 36.8992C5.73654 36.8992 5.94326 37.1059 5.94326 37.416C5.94326 39.1731 5.94326 40.2583 6.14998 40.6718C6.25334 40.8785 6.61509 40.9302 7.59701 40.9302H7.75204C8.94067 40.9302 9.66419 40.9302 9.87091 40.6718C10.1293 40.4134 10.1293 39.4831 10.1293 38.0878C10.1293 37.7777 10.336 37.571 10.6461 37.571C10.9562 37.571 11.1629 37.7777 11.1629 38.0878C11.1629 41.6537 10.9562 41.9121 7.75204 41.9121Z" fill="#BDBDBD"/>
<path d="M32.2483 41.912C29.0441 41.912 28.8374 41.6536 28.8374 38.036C28.8374 37.726 29.0441 37.5192 29.3542 37.5192C29.6643 37.5192 29.871 37.726 29.871 38.036C29.871 39.4314 29.871 40.3616 30.1294 40.62C30.3361 40.8784 31.1113 40.8784 32.2999 40.8784H32.4033C33.3852 40.8784 33.747 40.8784 33.8503 40.62C34.057 40.2583 34.057 39.1213 34.057 37.3642C34.057 37.0541 34.2638 36.8474 34.5738 36.8474C34.8839 36.8474 35.0906 37.0541 35.0906 37.3642C35.0906 41.3435 34.9873 41.8603 32.3516 41.8603H32.2483V41.912Z" fill="#BDBDBD"/>
<path d="M30.0776 21.5505H9.87092H9.81924C9.1474 21.4989 8.52725 21.1888 8.11381 20.672C7.75206 20.2069 7.3903 19.2766 7.85542 17.8296C7.95877 17.5712 8.21717 17.4162 8.47557 17.4679C8.73397 17.5712 8.88901 17.8296 8.83733 18.088C8.57893 18.9149 8.63061 19.5867 8.94069 20.0518C9.1474 20.3619 9.56084 20.5169 9.97428 20.5169H30.0259C30.4394 20.5169 30.8528 20.3619 31.0595 20.0518C31.3696 19.6384 31.4213 18.9666 31.1629 18.088C31.0595 17.8296 31.2663 17.5195 31.5247 17.4679C31.7831 17.3645 32.0931 17.5712 32.1448 17.8296C32.5583 19.3283 32.2482 20.2069 31.8864 20.672C31.473 21.1888 30.8528 21.4989 30.181 21.5505C30.1293 21.5505 30.1293 21.5505 30.0776 21.5505Z" fill="#BDBDBD"/>
<path d="M36.1758 1.60219H3.82441C3.51434 1.60219 3.30762 1.39548 3.30762 1.0854C3.30762 0.775322 3.51434 0.568604 3.82441 0.568604H36.1758C36.4859 0.568604 36.6926 0.775322 36.6926 1.0854C36.6926 1.39548 36.4342 1.60219 36.1758 1.60219Z" fill="#BDBDBD"/>
<path d="M36.176 24.6513C35.8659 24.6513 35.6592 24.4446 35.6592 24.1345V1.0854C35.6592 0.775322 35.8659 0.568604 36.176 0.568604C36.4861 0.568604 36.6928 0.775322 36.6928 1.0854V24.1345C36.6928 24.4446 36.4344 24.6513 36.176 24.6513Z" fill="#BDBDBD"/>
<path d="M3.82441 24.6513C3.51434 24.6513 3.30762 24.4446 3.30762 24.1345V1.0854C3.30762 0.775322 3.51434 0.568604 3.82441 0.568604C4.13449 0.568604 4.34121 0.775322 4.34121 1.0854V24.1345C4.34121 24.4446 4.08281 24.6513 3.82441 24.6513Z" fill="#BDBDBD"/>
<path d="M1.03359 22.0674C0.465116 22.0674 0 21.6023 0 21.0338V16.641C0 16.0725 0.465116 15.6074 1.03359 15.6074C1.60207 15.6074 2.06718 16.0725 2.06718 16.641V21.0338C2.06718 21.6023 1.60207 22.0674 1.03359 22.0674Z" fill="#BDBDBD"/>
<path d="M38.9662 22.0674C38.3977 22.0674 37.9326 21.6023 37.9326 21.0338V16.641C37.9326 16.0725 38.3977 15.6074 38.9662 15.6074C39.5347 15.6074 39.9998 16.0725 39.9998 16.641V21.0338C39.9998 21.6023 39.5347 22.0674 38.9662 22.0674Z" fill="#BDBDBD"/>
<path d="M24.5995 30.2326H15.3488C15.0387 30.2326 14.832 30.0258 14.832 29.7158C14.832 29.4057 15.0387 29.199 15.3488 29.199H24.5995C24.9095 29.199 25.1163 29.4057 25.1163 29.7158C25.1163 29.9742 24.9095 30.2326 24.5995 30.2326Z" fill="#BDBDBD"/>
<path d="M24.5995 28.4757H15.3488C15.0387 28.4757 14.832 28.269 14.832 27.9589C14.832 27.6489 15.0387 27.4421 15.3488 27.4421H24.5995C24.9095 27.4421 25.1163 27.6489 25.1163 27.9589C25.1163 28.269 24.9095 28.4757 24.5995 28.4757Z" fill="#BDBDBD"/>
<path d="M24.5995 31.9381H15.3488C15.0387 31.9381 14.832 31.7314 14.832 31.4213C14.832 31.1113 15.0387 30.9045 15.3488 30.9045H24.5995C24.9095 30.9045 25.1163 31.1113 25.1163 31.4213C25.1163 31.6797 24.9095 31.9381 24.5995 31.9381Z" fill="#BDBDBD"/>
<path d="M10.594 31.9382C9.25031 31.9382 8.16504 30.8529 8.16504 29.5093C8.16504 28.1656 9.25031 27.0803 10.594 27.0803C11.9376 27.0803 13.0229 28.1656 13.0229 29.5093C13.0229 30.8529 11.9376 31.9382 10.594 31.9382ZM10.594 28.1139C9.81879 28.1139 9.19863 28.7341 9.19863 29.5093C9.19863 30.2845 9.81879 30.9046 10.594 30.9046C11.3692 30.9046 11.9893 30.2845 11.9893 29.5093C11.9893 28.7341 11.3692 28.1139 10.594 28.1139Z" fill="#BDBDBD"/>
<path d="M29.406 31.9382C28.0623 31.9382 26.9771 30.8529 26.9771 29.5093C26.9771 28.1656 28.0623 27.0803 29.406 27.0803C30.7497 27.0803 31.8349 28.1656 31.8349 29.5093C31.8349 30.8529 30.698 31.9382 29.406 31.9382ZM29.406 28.1139C28.6308 28.1139 28.0106 28.7341 28.0106 29.5093C28.0106 30.2845 28.6308 30.9046 29.406 30.9046C30.1812 30.9046 30.8013 30.2845 30.8013 29.5093C30.8013 28.7341 30.1295 28.1139 29.406 28.1139Z" fill="#BDBDBD"/>
<path d="M20.0002 35.2973H19.8452C13.5919 35.2973 9.56093 34.9872 5.11648 34.5221C4.85809 34.4704 4.65137 34.2637 4.65137 34.0053C4.65137 30.026 4.65137 24.548 5.84 21.7056C5.99504 21.2922 6.25343 20.827 6.56351 20.3102C6.92527 19.6384 7.39038 18.9149 7.70046 18.0363L10.2844 9.50922C10.3361 9.3025 10.5428 9.14746 10.8012 9.14746H29.1475C29.3542 9.14746 29.5609 9.3025 29.6643 9.50922L32.2483 18.088C32.5583 18.9149 33.0235 19.6384 33.3852 20.3102C33.6953 20.827 33.9537 21.2922 34.1087 21.7056C35.2974 24.4963 35.2974 29.9743 35.2974 33.9537C35.2974 34.2121 35.0906 34.4188 34.8322 34.4704C30.5945 34.9872 26.4085 35.2973 20.0002 35.2973ZM5.68496 33.5402C9.92268 33.9537 13.8503 34.2637 19.8968 34.2637C26.0467 34.2637 30.1811 34.0053 34.3154 33.5402C34.3154 29.6642 34.2638 24.6513 33.1785 22.119C33.0234 21.7573 32.8167 21.3438 32.5067 20.8787C32.1449 20.2069 31.6281 19.4317 31.2663 18.4498L28.734 10.1811H11.163L8.68237 18.3981C8.32062 19.38 7.80382 20.2069 7.44206 20.827C7.18367 21.2922 6.92527 21.7056 6.77023 22.0674C5.73664 24.6513 5.68496 29.6642 5.68496 33.5402Z" fill="#BDBDBD"/>
</svg>
